<svg viewBox="0 0 80 64" xmlns="http://www.w3.org/2000/svg">
  <!-- Left bin -->
  <ellipse cx="20" cy="20" rx="8" ry="3"
           fill="none" stroke="currentColor" stroke-width="3"/>
  <path d="M12 20v20c0 2 3.5 4 8 4s8-2 8-4V20"
        fill="none" stroke="currentColor" stroke-width="3"
        stroke-linejoin="round"/>
  <path d="M12 40c0 2 3.5 4 8 4s8-2 8-4"
        fill="none" stroke="currentColor" stroke-width="3"
        stroke-linecap="round"/>

  <!-- Right bin -->
  <ellipse cx="60" cy="20" rx="8" ry="3"
           fill="none" stroke="currentColor" stroke-width="3"/>
  <path d="M52 20v20c0 2 3.5 4 8 4s8-2 8-4V20"
        fill="none" stroke="currentColor" stroke-width="3"
        stroke-linejoin="round"/>
  <path d="M52 40c0 2 3.5 4 8 4s8-2 8-4"
        fill="none" stroke="currentColor" stroke-width="3"
        stroke-linecap="round"/>

  <!-- Arrow (center, flow →) -->
  <line x1="30" y1="30" x2="50" y2="30"
        stroke="currentColor" stroke-width="3"
        stroke-linecap="round"/>
  <path d="M42 24l8 6-8 6"
        fill="none" stroke="currentColor" stroke-width="3"
        stroke-linecap="round" stroke-linejoin="round"/>
</svg>
