<svg xmlns="http://www.w3.org/2000/svg" viewBox="0 0 64 64" fill="none">
  <!-- Base platform -->
  <rect x="8" y="52" width="48" height="6" rx="2" fill="#2ea3f2"/>
  <!-- Pillar -->
  <rect x="29" y="20" width="6" height="32" rx="1" fill="#555"/>
  <!-- Beam -->
  <rect x="6" y="16" width="52" height="5" rx="2" fill="#333"/>
  <!-- Left chain -->
  <line x1="14" y1="21" x2="14" y2="30" stroke="#888" stroke-width="2"/>
  <!-- Right chain -->
  <line x1="50" y1="21" x2="50" y2="30" stroke="#888" stroke-width="2"/>
  <!-- Left pan -->
  <path d="M4 32 C4 30 8 28 14 28 C20 28 24 30 24 32 L22 38 C22 39 18 40 14 40 C10 40 6 39 6 38 Z" fill="#2ea3f2" opacity="0.8"/>
  <!-- Right pan -->
  <path d="M40 32 C40 30 44 28 50 28 C56 28 60 30 60 32 L58 38 C58 39 54 40 50 40 C46 40 42 39 42 38 Z" fill="#2ea3f2" opacity="0.8"/>
  <!-- Fulcrum triangle -->
  <polygon points="32,10 27,18 37,18" fill="#2ea3f2"/>
  <!-- Weight indicator circle -->
  <circle cx="32" cy="6" r="4" fill="#2ea3f2"/>
  <text x="32" y="8.5" text-anchor="middle" font-size="6" font-weight="bold" fill="white" font-family="Arial">W</text>
</svg>
