<svg xmlns="http://www.w3.org/2000/svg" viewBox="0 0 64 64">
  <!-- Administration (shield + gear) icon (for CSS mask usage) -->
  <!-- Shield -->
  <path d="M32 6L14 12v18c0 14 8 22 18 28c10-6 18-14 18-28V12L32 6z"/>

  <!-- Gear (simple 8-tooth) -->
  <path d="M30 17h4v6h-4z"/>
  <path d="M30 41h4v6h-4z"/>
  <path d="M17 30h6v4h-6z"/>
  <path d="M41 30h6v4h-6z"/>
  <path d="M22.2 21.4l2.8-2.8 4.2 4.2-2.8 2.8z"/>
  <path d="M34.8 39l2.8-2.8 4.2 4.2-2.8 2.8z"/>
  <path d="M39 22.8l4.2-4.2 2.8 2.8-4.2 4.2z"/>
  <path d="M18.8 43l4.2-4.2 2.8 2.8-4.2 4.2z"/>

  <!-- Gear body (outer + inner cut look via two filled circles) -->
  <path fill-rule="evenodd" d="M32 22a10 10 0 1 0 0 20a10 10 0 1 0 0-20z M32 27a5 5 0 1 1 0 10a5 5 0 1 1 0-10z"/>
</svg>
