<svg viewBox="0 0 80 64" xmlns="http://www.w3.org/2000/svg">

  <g transform="translate(80,0) scale(-1,1)">

    <!-- Grain Bin -->
    <ellipse cx="20" cy="20" rx="8" ry="3"
             fill="none" stroke="currentColor" stroke-width="3"/>

    <path d="M12 20v20c0 2 3.5 4 8 4s8-2 8-4V20"
          fill="none" stroke="currentColor" stroke-width="3"
          stroke-linejoin="round"/>

    <path d="M12 40c0 2 3.5 4 8 4s8-2 8-4"
          fill="none" stroke="currentColor" stroke-width="3"
          stroke-linecap="round"/>

    <!-- Truck -->
    <rect x="40" y="22" width="24" height="16" rx="2"
          fill="none" stroke="currentColor" stroke-width="3"/>
    <path d="M64 26h8l6 6v6h-14z"
          fill="none" stroke="currentColor" stroke-width="3"/>

    <!-- Wheels -->
    <circle cx="48" cy="42" r="4.5"
            fill="none" stroke="currentColor" stroke-width="3"/>
    <circle cx="70" cy="42" r="4.5"
            fill="none" stroke="currentColor" stroke-width="3"/>

    <!-- Arrow -->
    <line x1="10" y1="58" x2="70" y2="58"
          stroke="currentColor" stroke-width="3"
          stroke-linecap="round"/>
    <path d="M62 52l8 6-8 6"
          fill="none" stroke="currentColor" stroke-width="3"
          stroke-linecap="round" stroke-linejoin="round"/>

  </g>

</svg>
